# xmcd CD database file
#
# Track frame offsets:
#	150
#	15736
#	30078
#	43139
#	66939
#	80319
#	100699
#	114638
#	127093
#	139261
#	158146
#
# Disc length: 2243 seconds
#
# Revision: 0
# Processed by: cddbd v1.5.2PL0 Copyright (c) Steve Scherf et al.
# Submitted via: CDex 1.51
#
DISCID=8b08c10b
DTITLE=Skyline Boys -  Free and Forgiven
DYEAR=2008
DGENRE=Country
TTITLE0=MOVIN' OUT OF HERE
TTITLE1=HEAVEN IS REAL
TTITLE2=OH WHAT A CHANGE IN ME
TTITLE3=LOOK FOR ME
TTITLE4=I CAN'T WAIT FOR HEAVEN
TTITLE5=MERCY RIVER
TTITLE6=GLORY TO GOD IN THE HIGHEST
TTITLE7=DON'T DRINK THE WATER
TTITLE8=JOY FOR THE JOURNEY
TTITLE9=BLOOD ON MY HANDS
TTITLE10=BONUS CUT/ OH WAHT A CHANGE IN ME/ REPRISE
EXTD=YEAR: 2008
EXTT0=
EXTT1=
EXTT2=
EXTT3=
EXTT4=
EXTT5=
EXTT6=
EXTT7=
EXTT8=
EXTT9=
EXTT10=
PLAYORDER=
